<?xml version="1.0" standalone="no"?><!DOCTYPE svg PUBLIC "-//W3C//DTD SVG 1.1//EN" "http://www.w3.org/Graphics/SVG/1.1/DTD/svg11.dtd"><svg t="1758874262378" class="icon" viewBox="0 0 1024 1024" version="1.1" xmlns="http://www.w3.org/2000/svg" p-id="48953" xmlns:xlink="http://www.w3.org/1999/xlink" width="64" height="64"><path d="M444.235294 189.500235a149.323294 149.323294 0 1 1 0 298.646589 149.323294 149.323294 0 0 1 0-298.646589z m0 52.705883a96.617412 96.617412 0 1 0 0 193.234823 96.617412 96.617412 0 0 0 0-193.234823zM678.4 227.388235a26.352941 26.352941 0 0 1 35.358118 11.806118c2.891294 5.782588 6.776471 15.480471 10.541176 28.611765 14.697412 51.139765 14.697412 109.146353-9.697882 168.839529a26.352941 26.352941 0 0 1-48.790588-19.968c19.486118-47.646118 19.486118-93.756235 7.830588-134.324706a127.307294 127.307294 0 0 0-7.017412-19.57647 26.352941 26.352941 0 0 1 11.776-35.358118zM800.376471 157.665882a26.352941 26.352941 0 0 1 35.84 10.24c5.180235 9.336471 12.468706 25.720471 19.636705 48.128 28.190118 88.365176 28.190118 188.656941-18.672941 291.84a26.352941 26.352941 0 0 1-48.007529-21.835294c40.96-90.112 40.96-177.212235 16.474353-253.982117a285.876706 285.876706 0 0 0-11.053177-29.274353 135.529412 135.529412 0 0 0-4.457411-9.276236 26.352941 26.352941 0 0 1 10.24-35.84zM482.876235 576c103.695059 0 128.361412 2.017882 160.105412 18.191059a166.912 166.912 0 0 1 72.944941 72.944941c16.173176 31.744 18.191059 56.410353 18.191059 160.105412v21.082353a26.352941 26.352941 0 0 1-26.352941 26.352941H180.705882a26.352941 26.352941 0 0 1-26.352941-26.352941v-21.082353c0-103.695059 2.017882-128.361412 18.191059-160.105412a166.912 166.912 0 0 1 72.944941-72.944941c31.744-16.173176 56.410353-18.191059 160.105412-18.191059h77.281882z m17.709177 52.705882h-112.700236c-78.366118 0.301176-98.996706 2.529882-118.482823 12.438589a114.206118 114.206118 0 0 0-49.904941 49.904941c-9.938824 19.486118-12.167529 40.116706-12.408471 118.482823l-0.030117 12.408471h474.322823v-3.794824c-0.090353-82.522353-1.987765-105.351529-11.384471-124.988235l-1.024-2.108235a114.206118 114.206118 0 0 0-49.904941-49.904941c-19.486118-9.938824-40.116706-12.167529-118.482823-12.408471z" fill="#ffffff" p-id="48954"></path></svg>