<?xml version="1.0" standalone="no"?><!DOCTYPE svg PUBLIC "-//W3C//DTD SVG 1.1//EN" "http://www.w3.org/Graphics/SVG/1.1/DTD/svg11.dtd"><svg t="1758782027073" class="icon" viewBox="0 0 1024 1024" version="1.1" xmlns="http://www.w3.org/2000/svg" p-id="37798" xmlns:xlink="http://www.w3.org/1999/xlink" width="64" height="64"><path d="M881.29988035 102.93034902c-22.62584756-22.66547663-82.38273816-4.10037616-161.82447034 44.55607188C658.44363294 112.80734008 588.06438137 92.72536169 512.8882883 92.72536169 281.29924322 92.72536169 93.5858252 280.66053601 93.5858252 512.45700268c0 75.04792959 19.98079678 145.30745022 54.4726928 206.25406623-49.53251102 80.54545276-68.63640188 141.20960366-45.7845834 164.04034323 47.81495654 47.83603628 260.93333689-87.91989038 476.08883707-303.23980975C793.4617785 364.15121021 929.12073901 150.80517146 881.29988035 102.93034902L881.29988035 102.93034902zM313.17307034 655.5022059c-45.07041082 0-81.61207305-36.56189822-81.61207306-81.6938616 0-45.08896097 36.54166223-81.69301868 81.61207306-81.69301867 45.06450869 0 81.61207305 36.60405772 81.61207306 81.69301867C394.7851434 618.94536606 358.23757904 655.5022059 313.17307034 655.5022059L313.17307034 655.5022059zM455.97712421 410.47036856c-56.34117554 0-102.00012506-45.74495352-102.00012507-102.10130667 0-56.4027281 45.6581066-102.14346533 102.00012507-102.14346533 56.34286222 0 102.02373441 45.74495352 102.0237344 102.14346533C558.02446713 364.72541504 512.31998642 410.47036856 455.97712421 410.47036856L455.97712421 410.47036856zM869.84530255 292.30145566c-52.81078793 90.17454941-147.29229218 208.42862256-266.10117709 327.33868909C494.1629841 729.32836984 385.08859289 818.3140376 298.12739615 872.95452295c62.81594165 37.58973322 136.24665628 59.23412073 214.74065616 59.23412072 231.59073175 0 419.30330603-187.94023269 419.30330603-419.69116817C932.17135833 431.7007558 909.34061877 356.32398618 869.84530255 292.30145566L869.84530255 292.30145566zM660.02627888 798.51452429c-33.81650959 0-61.19704001-27.45894562-61.19704001-61.27882772 0-33.85445279 27.39907974-61.27967148 61.19704001-61.27967148 33.79290106 0 61.19113705 27.46147522 61.19113704 61.27967148C721.23849567 771.05389282 693.81917993 798.51452429 660.02627888 798.51452429L660.02627888 798.51452429z" p-id="37799" fill="#aaa"></path></svg>