<?xml version="1.0" standalone="no"?><!DOCTYPE svg PUBLIC "-//W3C//DTD SVG 1.1//EN" "http://www.w3.org/Graphics/SVG/1.1/DTD/svg11.dtd"><svg t="1758780115905" class="icon" viewBox="0 0 1024 1024" version="1.1" xmlns="http://www.w3.org/2000/svg" p-id="22656" xmlns:xlink="http://www.w3.org/1999/xlink" width="64" height="64"><path d="M508.2 64.8c61.7-0.7 119.8 10.5 174.1 33.4 54.3 23 102 54.2 143 93.7 41.1 39.5 73.4 86.1 97.2 139.7 23.8 53.7 36 111.2 36.6 172.7 0.7 58.1-9.3 112.7-30 164s-49.5 96.7-86.5 136.2c-37 39.5-80.4 72.1-130.3 97.7-49.9 25.6-103.6 41.5-161.3 47.6-15 2-30.9 3.7-47.9 5.1-17 1.3-35.8 2.4-56.5 3-20.7 0.7-43.8 0.7-69.2 0-25.4-0.7-54.1-2.7-86-6.1-70.6-6.7-123-15.5-157.2-26.3-34.3-10.8-48-16.9-41.2-18.2 36-6.1 66.8-15.8 92.6-29.4 13.6-7.4 19.2-18.1 16.8-31.9-2.4-13.8-9-26.9-19.8-39-34.6-37.8-62.6-81.8-84-132.1S65.9 570.4 64.5 512.4C63.7 450.9 75 393.2 98 339.2c23.1-54 54.6-101.3 94.6-141.8 40-40.5 87.2-72.6 141.5-96.2 54.3-23.6 112.3-35.8 174.1-36.4z m198.4 445.5c0 17.5 6.1 32.6 18.4 45.1 12.2 12.5 27.1 18.7 44.8 18.7 17.6 0 32.7-6.2 45.3-18.7 12.5-12.5 18.8-27.5 18.8-45.1s-6.3-32.4-18.8-44.5c-12.6-12.2-27.7-18.2-45.3-18.2-17.7 0-32.6 6.1-44.8 18.2-12.3 12.1-18.4 27-18.4 44.5z m-255.4 0c0 17.5 6.4 32.8 19.3 45.6 12.9 12.8 28.1 19.2 45.8 19.2 18.3 0 33.8-6.4 46.3-19.2 12.5-12.8 18.8-28 18.8-45.6 0-18.2-6.3-33.6-18.8-46.1s-28-18.7-46.3-18.7c-17.6 0-32.9 6.2-45.8 18.7-12.9 12.5-19.3 27.9-19.3 46.1z m-252.4-1c0 17.5 6.3 32.8 18.8 45.6 12.5 12.8 27.6 19.2 45.3 19.2 18.3 0 33.7-6.4 46.3-19.2 12.5-12.8 18.8-28 18.8-45.6s-6.3-32.6-18.8-45.1-28-18.7-46.3-18.7c-17.6 0-32.7 6.2-45.3 18.7-12.6 12.5-18.8 27.5-18.8 45.1z m0 0" fill="#aaa" p-id="22657"></path></svg>