<?xml version="1.0" standalone="no"?><!DOCTYPE svg PUBLIC "-//W3C//DTD SVG 1.1//EN" "http://www.w3.org/Graphics/SVG/1.1/DTD/svg11.dtd"><svg t="1758779268552" class="icon" viewBox="0 0 1024 1024" version="1.1" xmlns="http://www.w3.org/2000/svg" p-id="15880" width="64" height="64" xmlns:xlink="http://www.w3.org/1999/xlink"><path d="M712.4 125.1h-0.3c-79.2 0-153.6 38-200.1 102.1-46.6-64.2-121.1-102.1-200.4-102.1C174.8 125.1 64 202.4 64 372.6 64 609.7 512 899 512 899s448-300.1 448-526.4v-0.3c-0.2-136.6-111-247.2-247.6-247.2z m-14.9 405.1c-24 56.2-98.6 94.1-185.5 94.1s-161.5-37.8-185.5-94.1c-6.6-15.5 0.6-33.5 16.1-40.1 15.5-6.6 33.4 0.6 40.1 16.1 11.8 27.6 61.1 56.9 129.3 56.9 68.2 0 117.5-29.4 129.3-57 6.6-15.5 24.6-22.7 40.1-16.1 15.5 6.7 22.7 24.7 16.1 40.2z" fill="#aaa" p-id="15881"></path></svg>